<svg width="338" height="180" viewBox="0 0 338 180" fill="none" xmlns="http://www.w3.org/2000/svg">
<rect x="136" y="7" width="174" height="33" fill="black"/>
<rect y="7" width="136" height="33" fill="white"/>
<path d="M136 7L157.651 40H114.349L136 7Z" fill="white"/>
<path d="M2.02273 35V11.7273H11.2045C12.9621 11.7273 14.4621 12.0417 15.7045 12.6705C16.9545 13.2917 17.9053 14.1742 18.5568 15.3182C19.2159 16.4545 19.5455 17.7917 19.5455 19.3295C19.5455 20.875 19.2121 22.2045 18.5455 23.3182C17.8788 24.4242 16.9129 25.2727 15.6477 25.8636C14.3902 26.4545 12.8674 26.75 11.0795 26.75H4.93182V22.7955H10.2841C11.2235 22.7955 12.0038 22.6667 12.625 22.4091C13.2462 22.1515 13.7083 21.7652 14.0114 21.25C14.322 20.7348 14.4773 20.0947 14.4773 19.3295C14.4773 18.5568 14.322 17.9053 14.0114 17.375C13.7083 16.8447 13.2424 16.4432 12.6136 16.1705C11.9924 15.8902 11.2083 15.75 10.2614 15.75H6.94318V35H2.02273ZM14.5909 24.4091L20.375 35H14.9432L9.28409 24.4091H14.5909ZM27.0341 35H21.7614L29.7955 11.7273H36.1364L44.1591 35H38.8864L33.0568 17.0455H32.875L27.0341 35ZM26.7045 25.8523H39.1591V29.6932H26.7045V25.8523ZM43.2301 15.7841V11.7273H62.3438V15.7841H55.2188V35H50.3551V15.7841H43.2301ZM65.4915 35V11.7273H81.1733V15.7841H70.4119V21.3295H80.3665V25.3864H70.4119V30.9432H81.2188V35H65.4915ZM92.4915 11.7273H98.5597L104.969 27.3636H105.241L111.651 11.7273H117.719V35H112.946V19.8523H112.753L106.73 34.8864H103.48L97.4574 19.7955H97.2642V35H92.4915V11.7273ZM120.409 11.7273H125.92L131.227 21.75H131.455L136.761 11.7273H142.273L133.784 26.7727V35H128.898V26.7727L120.409 11.7273Z" fill="black"/>
<path d="M159.773 35V11.7273H169.091C170.803 11.7273 172.231 11.9811 173.375 12.4886C174.519 12.9962 175.379 13.7008 175.955 14.6023C176.53 15.4962 176.818 16.5265 176.818 17.6932C176.818 18.6023 176.636 19.4015 176.273 20.0909C175.909 20.7727 175.409 21.3333 174.773 21.7727C174.144 22.2045 173.424 22.5114 172.614 22.6932V22.9205C173.5 22.9583 174.33 23.2083 175.102 23.6705C175.883 24.1326 176.515 24.7803 177 25.6136C177.485 26.4394 177.727 27.4242 177.727 28.5682C177.727 29.803 177.42 30.9053 176.807 31.875C176.201 32.8371 175.303 33.5985 174.114 34.1591C172.924 34.7197 171.458 35 169.716 35H159.773ZM164.693 30.9773H168.705C170.076 30.9773 171.076 30.7159 171.705 30.1932C172.333 29.6629 172.648 28.9583 172.648 28.0795C172.648 27.4356 172.492 26.8674 172.182 26.375C171.871 25.8826 171.428 25.4962 170.852 25.2159C170.284 24.9356 169.606 24.7955 168.818 24.7955H164.693V30.9773ZM164.693 21.4659H168.341C169.015 21.4659 169.614 21.3485 170.136 21.1136C170.667 20.8712 171.083 20.5303 171.386 20.0909C171.697 19.6515 171.852 19.125 171.852 18.5114C171.852 17.6705 171.553 16.9924 170.955 16.4773C170.364 15.9621 169.523 15.7045 168.432 15.7045H164.693V21.4659ZM195.304 11.7273H200.224V26.8409C200.224 28.5379 199.819 30.0227 199.009 31.2955C198.205 32.5682 197.08 33.5606 195.634 34.2727C194.187 34.9773 192.501 35.3295 190.577 35.3295C188.645 35.3295 186.955 34.9773 185.509 34.2727C184.062 33.5606 182.937 32.5682 182.134 31.2955C181.33 30.0227 180.929 28.5379 180.929 26.8409V11.7273H185.849V26.4205C185.849 27.3068 186.043 28.0947 186.429 28.7841C186.823 29.4735 187.376 30.0152 188.088 30.4091C188.8 30.803 189.63 31 190.577 31C191.531 31 192.361 30.803 193.065 30.4091C193.777 30.0152 194.327 29.4735 194.713 28.7841C195.107 28.0947 195.304 27.3068 195.304 26.4205V11.7273ZM209.193 11.7273V35H204.273V11.7273H209.193ZM213.241 35V11.7273H218.162V30.9432H228.139V35H213.241ZM239.648 35H231.398V11.7273H239.716C242.057 11.7273 244.072 12.1932 245.761 13.125C247.451 14.0492 248.75 15.3788 249.659 17.1136C250.576 18.8485 251.034 20.9242 251.034 23.3409C251.034 25.7652 250.576 27.8485 249.659 29.5909C248.75 31.3333 247.443 32.6705 245.739 33.6023C244.042 34.5341 242.011 35 239.648 35ZM236.318 30.7841H239.443C240.898 30.7841 242.121 30.5265 243.114 30.0114C244.114 29.4886 244.864 28.6818 245.364 27.5909C245.871 26.4924 246.125 25.0758 246.125 23.3409C246.125 21.6212 245.871 20.2159 245.364 19.125C244.864 18.0341 244.117 17.2311 243.125 16.7159C242.133 16.2008 240.909 15.9432 239.455 15.9432H236.318V30.7841ZM259.599 11.7273V35H254.679V11.7273H259.599ZM283.114 11.7273V35H278.864L268.739 20.3523H268.568V35H263.648V11.7273H267.966L278.011 26.3636H278.216V11.7273H283.114ZM302.611 19.25C302.452 18.697 302.228 18.2083 301.94 17.7841C301.652 17.3523 301.3 16.9886 300.884 16.6932C300.474 16.3902 300.005 16.1591 299.474 16C298.952 15.8409 298.372 15.7614 297.736 15.7614C296.546 15.7614 295.501 16.0568 294.599 16.6477C293.705 17.2386 293.009 18.0985 292.509 19.2273C292.009 20.3485 291.759 21.7197 291.759 23.3409C291.759 24.9621 292.005 26.3409 292.497 27.4773C292.99 28.6136 293.687 29.4811 294.588 30.0795C295.49 30.6705 296.554 30.9659 297.781 30.9659C298.895 30.9659 299.846 30.7689 300.634 30.375C301.429 29.9735 302.035 29.4091 302.452 28.6818C302.876 27.9545 303.088 27.0947 303.088 26.1023L304.088 26.25H298.088V22.5455H307.827V25.4773C307.827 27.5227 307.395 29.2803 306.531 30.75C305.668 32.2121 304.478 33.3409 302.963 34.1364C301.448 34.9242 299.713 35.3182 297.759 35.3182C295.577 35.3182 293.66 34.8371 292.009 33.875C290.357 32.9053 289.069 31.5303 288.145 29.75C287.228 27.9621 286.77 25.8409 286.77 23.3864C286.77 21.5 287.043 19.8182 287.588 18.3409C288.141 16.8561 288.914 15.5985 289.906 14.5682C290.899 13.5379 292.054 12.7538 293.372 12.2159C294.69 11.678 296.118 11.4091 297.656 11.4091C298.974 11.4091 300.202 11.6023 301.338 11.9886C302.474 12.3674 303.482 12.9053 304.361 13.6023C305.247 14.2992 305.971 15.1288 306.531 16.0909C307.092 17.0455 307.452 18.0985 307.611 19.25H302.611Z" fill="white"/>
</svg>
